<!-- Arul wordmark + tagline — gopuram mark (same geometry as logo_mark.svg and
     lib/app/widgets/gopuram_mark.dart, design-handoff viewBox 0 0 44 40) + ARUL +
     SOUTH INDIAN WALLPAPERS. Letterforms are outlined paths (no font dependency). -->
<svg xmlns="http://www.w3.org/2000/svg" width="527" height="140" viewBox="0 0 527 140" role="img" aria-label="Arul — South Indian Wallpapers">
  <defs>
    <linearGradient id="gopuramGold" x1="0" y1="0" x2="0" y2="1">
      <stop offset="0" stop-color="#F5C95C"/>
      <stop offset="1" stop-color="#E0A82E"/>
    </linearGradient>
  </defs>
  <g transform="translate(20,22) scale(2.0)">
    <path fill="url(#gopuramGold)" fill-rule="nonzero"
          d="M20 0h4v3h-4z M14 5h16l-2 5H16z M10 12h24l-2.5 6H12.5z M6 20h32l-3 7H9z M2 29h40l-2 8H4z"/>
  </g>
  <path id="wordmark" fill="#E0A82E" d="M161.68,27.5L165.32,27.5L148.68,79.5L141.92,79.5ZM161.68,27.5L165.32,27.5L185.08,79.5L178.32,79.5ZM147.9,63.9H179.1V70.14H147.9ZM197.82,27.5H204.06V79.5H197.82ZM204.06,27.5L218.62,27.5A13.52 13.52 0 0 1 218.62 54.54L204.06,54.54L204.06,48.3L218.62,48.3A7.28 7.28 0 0 0 218.62 33.74L204.06,33.74ZM215.5,52.46L222.26,52.46L234.22,79.5L227.46,79.5ZM246.7,27.5L246.7,60.26A19.24 19.24 0 0 0 285.18 60.26L285.18,27.5L278.94,27.5L278.94,60.26A13 13 0 0 1 252.94 60.26L252.94,27.5ZM297.66,27.5H303.9V73.26H329.9V79.5H297.66Z"/>
  <path id="tagline" fill="#F5C95C" opacity="0.72" d="M149.95,100.46A3.77 3.77 0 1 0 147.43 107.04L147.43,105.48A2.21 2.21 0 1 1 148.91 101.63ZM144.9,111.54A3.77 3.77 0 1 0 147.43 104.96L147.43,106.52A2.21 2.21 0 1 1 145.94 110.37ZM159.26,106A4.81 6.5 0 1 1 168.88 106A4.81 6.5 0 1 1 159.26 106ZM160.82,106A3.25 4.94 0 1 0 167.32 106A3.25 4.94 0 1 0 160.82 106ZM176.94,99.5L176.94,107.69A4.81 4.81 0 0 0 186.56 107.69L186.56,99.5L185,99.5L185,107.69A3.25 3.25 0 0 1 178.5 107.69L178.5,99.5ZM194.62,99.5H202.68V101.06H194.62ZM197.87,101.06H199.43V112.5H197.87ZM210.74,99.5H212.3V112.5H210.74ZM218.8,99.5H220.36V112.5H218.8ZM210.74,105.22H220.36V106.78H210.74ZM240.9,99.5H242.46V112.5H240.9ZM250.52,99.5H252.08V112.5H250.52ZM258.58,99.5H260.14V112.5H258.58ZM250.52,99.5L252.08,99.5L260.14,112.5L258.58,112.5ZM268.2,99.5H269.76V112.5H268.2ZM269.76,99.5L272.1,99.5A5.72 6.5 0 0 1 272.1 112.5L269.76,112.5L269.76,110.94L272.1,110.94A4.16 4.94 0 0 0 272.1 101.06L269.76,101.06ZM285.88,99.5H287.44V112.5H285.88ZM300.5,99.5L301.41,99.5L297.25,112.5L295.56,112.5ZM300.5,99.5L301.41,99.5L306.35,112.5L304.66,112.5ZM297.06,108.6H304.86V110.16H297.06ZM314.48,99.5H316.04V112.5H314.48ZM322.54,99.5H324.1V112.5H322.54ZM314.48,99.5L316.04,99.5L324.1,112.5L322.54,112.5ZM344.64,99.5L346.33,99.5L348.86,112.5L347.17,112.5ZM350.55,100.8L352.24,100.8L348.86,112.5L347.17,112.5ZM350.55,100.8L352.24,100.8L355.62,112.5L353.93,112.5ZM356.47,99.5L358.16,99.5L355.62,112.5L353.93,112.5ZM371.22,99.5L372.13,99.5L367.97,112.5L366.28,112.5ZM371.22,99.5L372.13,99.5L377.07,112.5L375.38,112.5ZM367.78,108.6H375.58V110.16H367.78ZM385.2,99.5H386.76V110.94H393.26V112.5H385.2ZM401.32,99.5H402.88V110.94H409.38V112.5H401.32ZM417.44,99.5H419V112.5H417.44ZM419,99.5L422.12,99.5A3.64 3.64 0 0 1 422.12 106.78L419,106.78L419,105.22L422.12,105.22A2.08 2.08 0 0 0 422.12 101.06L419,101.06ZM439.08,99.5L439.99,99.5L435.83,112.5L434.14,112.5ZM439.08,99.5L439.99,99.5L444.93,112.5L443.24,112.5ZM435.64,108.6H443.44V110.16H435.64ZM453.06,99.5H454.62V112.5H453.06ZM454.62,99.5L457.74,99.5A3.64 3.64 0 0 1 457.74 106.78L454.62,106.78L454.62,105.22L457.74,105.22A2.08 2.08 0 0 0 457.74 101.06L454.62,101.06ZM469.7,99.5H471.26V112.5H469.7ZM469.7,99.5H477.76V101.06H469.7ZM469.7,105.22H476.72V106.78H469.7ZM469.7,110.94H477.76V112.5H469.7ZM485.82,99.5H487.38V112.5H485.82ZM487.38,99.5L491.02,99.5A3.38 3.38 0 0 1 491.02 106.26L487.38,106.26L487.38,104.7L491.02,104.7A1.82 1.82 0 0 0 491.02 101.06L487.38,101.06ZM490.24,105.74L491.93,105.74L494.92,112.5L493.23,112.5ZM509.27,100.46A3.77 3.77 0 1 0 506.75 107.04L506.75,105.48A2.21 2.21 0 1 1 508.23 101.63ZM504.22,111.54A3.77 3.77 0 1 0 506.75 104.96L506.75,106.52A2.21 2.21 0 1 1 505.26 110.37Z"/>
</svg>
