<!-- Arul brand mark — lotus + deepam flame.
     Retint: change the four gradient stops below. Geometry is two paths only:
       #lotus (the bloom + receptacle) and #flame (the rising deepam flame).
     Canvas 108x108 = Android adaptive-icon foreground. Centre (54,54).
     All ink sits inside r=32.7 of centre, i.e. within the 66dp safe circle.
     The bloom is nonzero-filled: every subpath winds the same way, so they union.
     Reversing any subpath's direction will punch holes in the fill. -->
<svg xmlns="http://www.w3.org/2000/svg" width="348" height="140" viewBox="0 0 348 140" role="img" aria-label="Arul">
  <defs>
    <linearGradient id="lotusGold" x1="0" y1="0.18" x2="0" y2="1">
      <stop offset="0" stop-color="#F5C95C"/>
      <stop offset="1" stop-color="#E0A82E"/>
    </linearGradient>
    <linearGradient id="flameGold" x1="0" y1="0" x2="0" y2="1">
      <stop offset="0" stop-color="#F5C95C"/>
      <stop offset="1" stop-color="#E0A82E"/>
    </linearGradient>
  </defs>
  <g transform="translate(-33.10 -24.14) scale(1.7931)">
    <path fill="url(#lotusGold)" d="M54,73.74C66.18,70.28 58.96,68.21 54,62.22C49.04,68.21 41.82,70.28 54,73.74Z M52.26,74.16C60.76,64.01 52.91,64.51 44.41,58.76C44.07,69.02 39.05,75.07 52.26,74.16Z M55.74,74.16C68.95,75.07 63.93,69.02 63.59,58.76C55.09,64.51 47.24,64.01 55.74,74.16Z M50.85,75.38C52.65,61.76 45.4,65.5 33.55,63.26C39.7,73.63 38.68,81.72 50.85,75.38Z M57.15,75.38C69.32,81.72 68.3,73.63 74.45,63.26C62.6,65.5 55.35,61.76 57.15,75.38Z M50.19,77.11C44.94,65.5 40.21,71.42 28.27,74.42C39.13,80.22 42.29,87.11 50.19,77.11Z M57.81,77.11C65.71,87.11 68.87,80.22 79.73,74.42C67.79,71.42 63.06,65.5 57.81,77.11Z M54,71.58C47.18,71.58 43,74.88 43,77.58C43,82.38 47.18,83.58 54,83.58C60.82,83.58 65,82.38 65,77.58C65,74.88 60.82,71.58 54,71.58Z"/>
    <path fill="url(#flameGold)" d="M54,22.86C55.06,27.35 62.39,33.92 62.83,40.14C62.83,51.89 58.86,57.42 54,57.42C49.14,57.42 45.17,51.89 45.17,40.14C45.61,33.92 52.94,27.35 54,22.86Z"/>
  </g>
  <path id="wordmark" fill="#E0A82E" d="M161.68,44L165.32,44L148.68,96L141.92,96ZM161.68,44L165.32,44L185.08,96L178.32,96ZM147.9,80.4H179.1V86.64H147.9ZM197.82,44H204.06V96H197.82ZM204.06,44L218.62,44A13.52 13.52 0 0 1 218.62 71.04L204.06,71.04L204.06,64.8L218.62,64.8A7.28 7.28 0 0 0 218.62 50.24L204.06,50.24ZM215.5,68.96L222.26,68.96L234.22,96L227.46,96ZM246.7,44L246.7,76.76A19.24 19.24 0 0 0 285.18 76.76L285.18,44L278.94,44L278.94,76.76A13 13 0 0 1 252.94 76.76L252.94,44ZM297.66,44H303.9V89.76H329.9V96H297.66Z"/>

</svg>
